<mxfile host="app.diagrams.net" agent="Mozilla/5.0 (X11; Linux x86_64; rv:131.0) Gecko/20100101 Firefox/131.0" version="24.7.17">
  <diagram name="Page-1" id="0z-7tCUeWIyQNJrNbE80">
    <mxGraphModel dx="1050" dy="822" grid="1" gridSize="10" guides="1" tooltips="1" connect="1" arrows="1" fold="1" page="1" pageScale="1" pageWidth="850" pageHeight="1100" background="#994C00" math="0" shadow="0">
      <root>
        <mxCell id="0" />
        <mxCell id="1" parent="0" />
        <mxCell id="CRLLQoTF1z1hfWL0vX9g-2" value="&lt;b&gt;&lt;font style=&quot;font-size: 15px;&quot;&gt;Manages&lt;/font&gt;&lt;/b&gt;" style="rhombus;whiteSpace=wrap;html=1;" parent="1" vertex="1">
          <mxGeometry x="589" y="455" width="120" height="80" as="geometry" />
        </mxCell>
        <mxCell id="CRLLQoTF1z1hfWL0vX9g-7" value="&lt;b&gt;&lt;span style=&quot;font-size: 15px;&quot;&gt;mgr_SDate&lt;/span&gt;&lt;/b&gt;" style="ellipse;whiteSpace=wrap;html=1;" parent="1" vertex="1">
          <mxGeometry x="649" y="365" width="110" height="50" as="geometry" />
        </mxCell>
        <mxCell id="CRLLQoTF1z1hfWL0vX9g-9" value="&lt;b&gt;&lt;font style=&quot;font-size: 15px;&quot;&gt;&lt;u&gt;prj_name&lt;/u&gt;&lt;/font&gt;&lt;/b&gt;" style="ellipse;whiteSpace=wrap;html=1;" parent="1" vertex="1">
          <mxGeometry x="449" y="745" width="90" height="50" as="geometry" />
        </mxCell>
        <mxCell id="CRLLQoTF1z1hfWL0vX9g-12" value="&lt;b&gt;&lt;font style=&quot;font-size: 15px;&quot;&gt;Department&lt;/font&gt;&lt;/b&gt;" style="rounded=0;whiteSpace=wrap;html=1;" parent="1" vertex="1">
          <mxGeometry x="349" y="465" width="120" height="60" as="geometry" />
        </mxCell>
        <mxCell id="CRLLQoTF1z1hfWL0vX9g-13" value="" style="endArrow=none;html=1;rounded=0;entryX=0.5;entryY=1;entryDx=0;entryDy=0;exitX=0.5;exitY=0;exitDx=0;exitDy=0;strokeWidth=2;" parent="1" source="CRLLQoTF1z1hfWL0vX9g-12" target="CRLLQoTF1z1hfWL0vX9g-14" edge="1">
          <mxGeometry width="50" height="50" relative="1" as="geometry">
            <mxPoint x="399" y="405" as="sourcePoint" />
            <mxPoint x="449" y="355" as="targetPoint" />
          </mxGeometry>
        </mxCell>
        <mxCell id="CRLLQoTF1z1hfWL0vX9g-14" value="&lt;b&gt;&lt;u&gt;dpt_number&lt;/u&gt;&lt;/b&gt;" style="ellipse;whiteSpace=wrap;html=1;" parent="1" vertex="1">
          <mxGeometry x="459" y="325" width="90" height="50" as="geometry" />
        </mxCell>
        <mxCell id="CRLLQoTF1z1hfWL0vX9g-15" value="&lt;b&gt;&lt;font style=&quot;font-size: 15px;&quot;&gt;&lt;u&gt;dpt_name&lt;/u&gt;&lt;/font&gt;&lt;/b&gt;" style="ellipse;whiteSpace=wrap;html=1;" parent="1" vertex="1">
          <mxGeometry x="279" y="325" width="90" height="50" as="geometry" />
        </mxCell>
        <mxCell id="CRLLQoTF1z1hfWL0vX9g-16" value="" style="endArrow=none;html=1;rounded=0;entryX=0.5;entryY=1;entryDx=0;entryDy=0;exitX=0.5;exitY=0;exitDx=0;exitDy=0;strokeWidth=2;" parent="1" source="CRLLQoTF1z1hfWL0vX9g-12" target="CRLLQoTF1z1hfWL0vX9g-15" edge="1">
          <mxGeometry width="50" height="50" relative="1" as="geometry">
            <mxPoint x="269" y="425" as="sourcePoint" />
            <mxPoint x="344" y="355" as="targetPoint" />
          </mxGeometry>
        </mxCell>
        <mxCell id="CRLLQoTF1z1hfWL0vX9g-17" value="" style="endArrow=none;html=1;rounded=0;entryX=0;entryY=0.5;entryDx=0;entryDy=0;exitX=1;exitY=0.5;exitDx=0;exitDy=0;strokeWidth=2;" parent="1" source="CRLLQoTF1z1hfWL0vX9g-12" target="CRLLQoTF1z1hfWL0vX9g-2" edge="1">
          <mxGeometry width="50" height="50" relative="1" as="geometry">
            <mxPoint x="399" y="425" as="sourcePoint" />
            <mxPoint x="474" y="355" as="targetPoint" />
          </mxGeometry>
        </mxCell>
        <mxCell id="CRLLQoTF1z1hfWL0vX9g-18" value="&lt;font style=&quot;font-size: 15px;&quot;&gt;&lt;b&gt;Employee&lt;/b&gt;&lt;/font&gt;" style="rounded=0;whiteSpace=wrap;html=1;" parent="1" vertex="1">
          <mxGeometry x="889" y="465" width="120" height="60" as="geometry" />
        </mxCell>
        <mxCell id="CRLLQoTF1z1hfWL0vX9g-19" value="" style="endArrow=none;html=1;rounded=0;entryX=0;entryY=0.5;entryDx=0;entryDy=0;exitX=1;exitY=0.5;exitDx=0;exitDy=0;strokeWidth=2;" parent="1" source="CRLLQoTF1z1hfWL0vX9g-2" target="CRLLQoTF1z1hfWL0vX9g-18" edge="1">
          <mxGeometry width="50" height="50" relative="1" as="geometry">
            <mxPoint x="689" y="464.5" as="sourcePoint" />
            <mxPoint x="839" y="464.5" as="targetPoint" />
          </mxGeometry>
        </mxCell>
        <mxCell id="CRLLQoTF1z1hfWL0vX9g-20" value="" style="endArrow=none;html=1;rounded=0;strokeWidth=2;exitX=0.5;exitY=0;exitDx=0;exitDy=0;entryX=0.5;entryY=1;entryDx=0;entryDy=0;" parent="1" source="CRLLQoTF1z1hfWL0vX9g-12" target="CRLLQoTF1z1hfWL0vX9g-21" edge="1">
          <mxGeometry width="50" height="50" relative="1" as="geometry">
            <mxPoint x="409" y="455" as="sourcePoint" />
            <mxPoint x="409" y="305" as="targetPoint" />
          </mxGeometry>
        </mxCell>
        <mxCell id="CRLLQoTF1z1hfWL0vX9g-21" value="&lt;b&gt;&lt;u&gt;dpt_location&lt;/u&gt;&lt;/b&gt;" style="ellipse;whiteSpace=wrap;html=1;" parent="1" vertex="1">
          <mxGeometry x="364" y="245" width="90" height="50" as="geometry" />
        </mxCell>
        <mxCell id="CRLLQoTF1z1hfWL0vX9g-24" value="" style="ellipse;whiteSpace=wrap;html=1;fillColor=none;" parent="1" vertex="1">
          <mxGeometry x="359" y="240" width="100" height="60" as="geometry" />
        </mxCell>
        <mxCell id="CRLLQoTF1z1hfWL0vX9g-25" value="&lt;font style=&quot;font-size: 15px;&quot;&gt;&lt;b&gt;1&lt;/b&gt;&lt;/font&gt;" style="text;html=1;align=center;verticalAlign=middle;resizable=0;points=[];autosize=1;strokeColor=none;fillColor=none;gradientColor=none;" parent="1" vertex="1">
          <mxGeometry x="569" y="465" width="30" height="30" as="geometry" />
        </mxCell>
        <mxCell id="CRLLQoTF1z1hfWL0vX9g-26" value="&lt;font style=&quot;font-size: 15px;&quot;&gt;&lt;b&gt;1&lt;/b&gt;&lt;/font&gt;" style="text;html=1;align=center;verticalAlign=middle;resizable=0;points=[];autosize=1;strokeColor=none;fillColor=none;gradientColor=none;" parent="1" vertex="1">
          <mxGeometry x="699" y="465" width="30" height="30" as="geometry" />
        </mxCell>
        <mxCell id="CRLLQoTF1z1hfWL0vX9g-27" value="" style="endArrow=none;html=1;rounded=0;exitX=0.995;exitY=0.619;exitDx=0;exitDy=0;strokeWidth=2;exitPerimeter=0;entryX=0.062;entryY=0.586;entryDx=0;entryDy=0;entryPerimeter=0;" parent="1" source="CRLLQoTF1z1hfWL0vX9g-12" target="CRLLQoTF1z1hfWL0vX9g-2" edge="1">
          <mxGeometry width="50" height="50" relative="1" as="geometry">
            <mxPoint x="479" y="505" as="sourcePoint" />
            <mxPoint x="559" y="505" as="targetPoint" />
          </mxGeometry>
        </mxCell>
        <mxCell id="CRLLQoTF1z1hfWL0vX9g-28" value="" style="endArrow=none;html=1;rounded=0;entryX=0.5;entryY=1;entryDx=0;entryDy=0;exitX=1;exitY=0;exitDx=0;exitDy=0;strokeWidth=2;" parent="1" source="CRLLQoTF1z1hfWL0vX9g-2" target="CRLLQoTF1z1hfWL0vX9g-7" edge="1">
          <mxGeometry width="50" height="50" relative="1" as="geometry">
            <mxPoint x="419" y="475" as="sourcePoint" />
            <mxPoint x="514" y="385" as="targetPoint" />
          </mxGeometry>
        </mxCell>
        <mxCell id="CRLLQoTF1z1hfWL0vX9g-29" value="&lt;font style=&quot;font-size: 15px;&quot;&gt;&lt;b&gt;Project&lt;/b&gt;&lt;/font&gt;" style="rounded=0;whiteSpace=wrap;html=1;" parent="1" vertex="1">
          <mxGeometry x="515" y="855" width="120" height="60" as="geometry" />
        </mxCell>
        <mxCell id="CRLLQoTF1z1hfWL0vX9g-30" value="&lt;font style=&quot;font-size: 15px;&quot;&gt;&lt;b&gt;Controls&lt;/b&gt;&lt;/font&gt;" style="rhombus;whiteSpace=wrap;html=1;" parent="1" vertex="1">
          <mxGeometry x="255" y="775" width="120" height="80" as="geometry" />
        </mxCell>
        <mxCell id="CRLLQoTF1z1hfWL0vX9g-31" value="" style="endArrow=none;html=1;rounded=0;exitX=0;exitY=0.5;exitDx=0;exitDy=0;strokeWidth=2;entryX=0;entryY=0.5;entryDx=0;entryDy=0;" parent="1" source="CRLLQoTF1z1hfWL0vX9g-30" target="CRLLQoTF1z1hfWL0vX9g-12" edge="1">
          <mxGeometry width="50" height="50" relative="1" as="geometry">
            <mxPoint x="439" y="695" as="sourcePoint" />
            <mxPoint x="309" y="495" as="targetPoint" />
            <Array as="points">
              <mxPoint x="199" y="815" />
              <mxPoint x="199" y="495" />
            </Array>
          </mxGeometry>
        </mxCell>
        <mxCell id="CRLLQoTF1z1hfWL0vX9g-32" value="" style="endArrow=none;html=1;rounded=0;entryX=1;entryY=0.5;entryDx=0;entryDy=0;exitX=0;exitY=0.5;exitDx=0;exitDy=0;strokeWidth=2;" parent="1" source="CRLLQoTF1z1hfWL0vX9g-29" target="CRLLQoTF1z1hfWL0vX9g-30" edge="1">
          <mxGeometry width="50" height="50" relative="1" as="geometry">
            <mxPoint x="745" y="1020" as="sourcePoint" />
            <mxPoint x="595" y="890" as="targetPoint" />
          </mxGeometry>
        </mxCell>
        <mxCell id="CRLLQoTF1z1hfWL0vX9g-34" value="&lt;font style=&quot;font-size: 15px;&quot;&gt;&lt;b&gt;1&lt;/b&gt;&lt;/font&gt;" style="text;html=1;align=center;verticalAlign=middle;resizable=0;points=[];autosize=1;strokeColor=none;fillColor=none;gradientColor=none;" parent="1" vertex="1">
          <mxGeometry x="249" y="775" width="30" height="30" as="geometry" />
        </mxCell>
        <mxCell id="CRLLQoTF1z1hfWL0vX9g-35" value="&lt;b&gt;&lt;font style=&quot;font-size: 15px;&quot;&gt;N&lt;/font&gt;&lt;/b&gt;" style="text;html=1;align=center;verticalAlign=middle;resizable=0;points=[];autosize=1;strokeColor=none;fillColor=none;" parent="1" vertex="1">
          <mxGeometry x="365" y="785" width="40" height="30" as="geometry" />
        </mxCell>
        <mxCell id="CRLLQoTF1z1hfWL0vX9g-36" value="&lt;b&gt;&lt;font style=&quot;font-size: 15px;&quot;&gt;&lt;u&gt;prj_number&lt;/u&gt;&lt;/font&gt;&lt;/b&gt;" style="ellipse;whiteSpace=wrap;html=1;" parent="1" vertex="1">
          <mxGeometry x="589" y="745" width="100" height="50" as="geometry" />
        </mxCell>
        <mxCell id="CRLLQoTF1z1hfWL0vX9g-37" value="" style="endArrow=none;html=1;rounded=0;entryX=0.5;entryY=1;entryDx=0;entryDy=0;strokeWidth=2;exitX=0.463;exitY=0;exitDx=0;exitDy=0;exitPerimeter=0;" parent="1" source="CRLLQoTF1z1hfWL0vX9g-29" target="CRLLQoTF1z1hfWL0vX9g-36" edge="1">
          <mxGeometry width="50" height="50" relative="1" as="geometry">
            <mxPoint x="569" y="850" as="sourcePoint" />
            <mxPoint x="700" y="680" as="targetPoint" />
          </mxGeometry>
        </mxCell>
        <mxCell id="CRLLQoTF1z1hfWL0vX9g-38" value="" style="endArrow=none;html=1;rounded=0;entryX=0.5;entryY=1;entryDx=0;entryDy=0;strokeWidth=2;exitX=0.459;exitY=-0.008;exitDx=0;exitDy=0;exitPerimeter=0;" parent="1" source="CRLLQoTF1z1hfWL0vX9g-29" target="CRLLQoTF1z1hfWL0vX9g-9" edge="1">
          <mxGeometry width="50" height="50" relative="1" as="geometry">
            <mxPoint x="645" y="740" as="sourcePoint" />
            <mxPoint x="440" y="765" as="targetPoint" />
          </mxGeometry>
        </mxCell>
        <mxCell id="CRLLQoTF1z1hfWL0vX9g-39" value="&lt;font style=&quot;font-size: 15px;&quot;&gt;&lt;b&gt;prj_location&lt;/b&gt;&lt;br&gt;&lt;/font&gt;" style="ellipse;whiteSpace=wrap;html=1;" parent="1" vertex="1">
          <mxGeometry x="515" y="700" width="105" height="50" as="geometry" />
        </mxCell>
        <mxCell id="CRLLQoTF1z1hfWL0vX9g-40" value="" style="endArrow=none;html=1;rounded=0;entryX=0.5;entryY=1;entryDx=0;entryDy=0;strokeWidth=2;exitX=0.461;exitY=-0.008;exitDx=0;exitDy=0;exitPerimeter=0;" parent="1" source="CRLLQoTF1z1hfWL0vX9g-29" target="CRLLQoTF1z1hfWL0vX9g-39" edge="1">
          <mxGeometry width="50" height="50" relative="1" as="geometry">
            <mxPoint x="575" y="850" as="sourcePoint" />
            <mxPoint x="595" y="680" as="targetPoint" />
          </mxGeometry>
        </mxCell>
        <mxCell id="CRLLQoTF1z1hfWL0vX9g-41" value="" style="endArrow=none;html=1;rounded=0;entryX=0.961;entryY=0.551;entryDx=0;entryDy=0;exitX=-0.002;exitY=0.631;exitDx=0;exitDy=0;strokeWidth=2;exitPerimeter=0;entryPerimeter=0;" parent="1" source="CRLLQoTF1z1hfWL0vX9g-29" target="CRLLQoTF1z1hfWL0vX9g-30" edge="1">
          <mxGeometry width="50" height="50" relative="1" as="geometry">
            <mxPoint x="645" y="938" as="sourcePoint" />
            <mxPoint x="575" y="878" as="targetPoint" />
          </mxGeometry>
        </mxCell>
        <mxCell id="CRLLQoTF1z1hfWL0vX9g-42" value="&lt;b&gt;&lt;font style=&quot;font-size: 15px;&quot;&gt;name&lt;/font&gt;&lt;/b&gt;" style="ellipse;whiteSpace=wrap;html=1;" parent="1" vertex="1">
          <mxGeometry x="1249" y="340" width="90" height="50" as="geometry" />
        </mxCell>
        <mxCell id="CRLLQoTF1z1hfWL0vX9g-43" value="&lt;font style=&quot;font-size: 15px;&quot;&gt;&lt;b&gt;sex&lt;/b&gt;&lt;/font&gt;" style="ellipse;whiteSpace=wrap;html=1;" parent="1" vertex="1">
          <mxGeometry x="1414" y="419" width="100" height="50" as="geometry" />
        </mxCell>
        <mxCell id="CRLLQoTF1z1hfWL0vX9g-44" value="" style="endArrow=none;html=1;rounded=0;entryX=0.5;entryY=1;entryDx=0;entryDy=0;exitX=0.509;exitY=-0.007;exitDx=0;exitDy=0;strokeWidth=2;exitPerimeter=0;" parent="1" source="CRLLQoTF1z1hfWL0vX9g-70" target="CRLLQoTF1z1hfWL0vX9g-43" edge="1">
          <mxGeometry width="50" height="50" relative="1" as="geometry">
            <mxPoint x="1364" y="585" as="sourcePoint" />
            <mxPoint x="1419" y="525" as="targetPoint" />
          </mxGeometry>
        </mxCell>
        <mxCell id="CRLLQoTF1z1hfWL0vX9g-45" value="" style="endArrow=none;html=1;rounded=0;entryX=0.5;entryY=1;entryDx=0;entryDy=0;strokeWidth=2;exitX=0.5;exitY=0;exitDx=0;exitDy=0;" parent="1" source="CRLLQoTF1z1hfWL0vX9g-70" target="CRLLQoTF1z1hfWL0vX9g-42" edge="1">
          <mxGeometry width="50" height="50" relative="1" as="geometry">
            <mxPoint x="1363" y="585" as="sourcePoint" />
            <mxPoint x="1394" y="505" as="targetPoint" />
          </mxGeometry>
        </mxCell>
        <mxCell id="CRLLQoTF1z1hfWL0vX9g-46" value="&lt;font style=&quot;font-size: 15px;&quot;&gt;&lt;b&gt;birthdate&lt;/b&gt;&lt;/font&gt;" style="ellipse;whiteSpace=wrap;html=1;" parent="1" vertex="1">
          <mxGeometry x="1194" y="419" width="105" height="50" as="geometry" />
        </mxCell>
        <mxCell id="CRLLQoTF1z1hfWL0vX9g-47" value="" style="endArrow=none;html=1;rounded=0;entryX=0.5;entryY=1;entryDx=0;entryDy=0;strokeWidth=2;exitX=0.504;exitY=0.024;exitDx=0;exitDy=0;exitPerimeter=0;" parent="1" source="CRLLQoTF1z1hfWL0vX9g-70" target="CRLLQoTF1z1hfWL0vX9g-46" edge="1">
          <mxGeometry width="50" height="50" relative="1" as="geometry">
            <mxPoint x="1364" y="584" as="sourcePoint" />
            <mxPoint x="1314" y="525" as="targetPoint" />
          </mxGeometry>
        </mxCell>
        <mxCell id="CRLLQoTF1z1hfWL0vX9g-48" value="&lt;u&gt;&lt;b style=&quot;font-size: 15px;&quot;&gt;&lt;/b&gt;&lt;font size=&quot;1&quot;&gt;&lt;/font&gt;&lt;b style=&quot;font-size: 15px;&quot;&gt;&lt;span style=&quot;font-size: 15px;&quot;&gt;E_SSN&lt;/span&gt;&lt;/b&gt;&lt;/u&gt;" style="ellipse;whiteSpace=wrap;html=1;" parent="1" vertex="1">
          <mxGeometry x="779" y="386" width="90" height="50" as="geometry" />
        </mxCell>
        <mxCell id="CRLLQoTF1z1hfWL0vX9g-49" value="&lt;font style=&quot;font-size: 15px;&quot;&gt;&lt;b&gt;sex&lt;/b&gt;&lt;/font&gt;" style="ellipse;whiteSpace=wrap;html=1;" parent="1" vertex="1">
          <mxGeometry x="1038" y="300" width="100" height="50" as="geometry" />
        </mxCell>
        <mxCell id="CRLLQoTF1z1hfWL0vX9g-50" value="" style="endArrow=none;html=1;rounded=0;entryX=0.5;entryY=1;entryDx=0;entryDy=0;exitX=0.5;exitY=0;exitDx=0;exitDy=0;strokeWidth=2;" parent="1" source="CRLLQoTF1z1hfWL0vX9g-18" target="CRLLQoTF1z1hfWL0vX9g-49" edge="1">
          <mxGeometry width="50" height="50" relative="1" as="geometry">
            <mxPoint x="844" y="465" as="sourcePoint" />
            <mxPoint x="899" y="405" as="targetPoint" />
          </mxGeometry>
        </mxCell>
        <mxCell id="CRLLQoTF1z1hfWL0vX9g-51" value="" style="endArrow=none;html=1;rounded=0;entryX=0.5;entryY=1;entryDx=0;entryDy=0;strokeWidth=2;exitX=0.5;exitY=0;exitDx=0;exitDy=0;" parent="1" source="CRLLQoTF1z1hfWL0vX9g-18" target="CRLLQoTF1z1hfWL0vX9g-48" edge="1">
          <mxGeometry width="50" height="50" relative="1" as="geometry">
            <mxPoint x="843" y="465" as="sourcePoint" />
            <mxPoint x="874" y="385" as="targetPoint" />
          </mxGeometry>
        </mxCell>
        <mxCell id="CRLLQoTF1z1hfWL0vX9g-52" value="&lt;font style=&quot;font-size: 15px;&quot;&gt;&lt;b&gt;address&lt;/b&gt;&lt;/font&gt;" style="ellipse;whiteSpace=wrap;html=1;" parent="1" vertex="1">
          <mxGeometry x="764" y="300" width="105" height="50" as="geometry" />
        </mxCell>
        <mxCell id="CRLLQoTF1z1hfWL0vX9g-53" value="" style="endArrow=none;html=1;rounded=0;strokeWidth=2;exitX=0.5;exitY=0;exitDx=0;exitDy=0;entryX=0.5;entryY=1;entryDx=0;entryDy=0;" parent="1" source="CRLLQoTF1z1hfWL0vX9g-18" target="CRLLQoTF1z1hfWL0vX9g-52" edge="1">
          <mxGeometry width="50" height="50" relative="1" as="geometry">
            <mxPoint x="844" y="464" as="sourcePoint" />
            <mxPoint x="799" y="335" as="targetPoint" />
          </mxGeometry>
        </mxCell>
        <mxCell id="CRLLQoTF1z1hfWL0vX9g-55" value="&lt;b style=&quot;font-size: 15px;&quot;&gt;&lt;font style=&quot;font-size: 15px;&quot;&gt;salary&lt;/font&gt;&lt;/b&gt;" style="ellipse;whiteSpace=wrap;html=1;" parent="1" vertex="1">
          <mxGeometry x="989" y="245" width="100" height="50" as="geometry" />
        </mxCell>
        <mxCell id="CRLLQoTF1z1hfWL0vX9g-56" value="&lt;b&gt;birthdate&lt;/b&gt;" style="ellipse;whiteSpace=wrap;html=1;" parent="1" vertex="1">
          <mxGeometry x="809" y="245" width="100" height="50" as="geometry" />
        </mxCell>
        <mxCell id="CRLLQoTF1z1hfWL0vX9g-59" value="" style="endArrow=none;dashed=1;html=1;rounded=0;curved=1;flowAnimation=0;shadow=0;targetPerimeterSpacing=0;strokeColor=default;" parent="1" edge="1">
          <mxGeometry width="50" height="50" relative="1" as="geometry">
            <mxPoint x="1088" y="440" as="sourcePoint" />
            <mxPoint x="1088" y="440" as="targetPoint" />
            <Array as="points">
              <mxPoint x="1058" y="440" />
              <mxPoint x="1038" y="430" />
              <mxPoint x="1038" y="410" />
              <mxPoint x="1058" y="390" />
              <mxPoint x="1108" y="400" />
              <mxPoint x="1108" y="410" />
              <mxPoint x="1108" y="430" />
            </Array>
          </mxGeometry>
        </mxCell>
        <mxCell id="CRLLQoTF1z1hfWL0vX9g-63" value="" style="endArrow=none;html=1;rounded=0;entryX=0.5;entryY=1;entryDx=0;entryDy=0;exitX=0.5;exitY=0;exitDx=0;exitDy=0;strokeWidth=2;" parent="1" source="CRLLQoTF1z1hfWL0vX9g-18" target="CRLLQoTF1z1hfWL0vX9g-55" edge="1">
          <mxGeometry width="50" height="50" relative="1" as="geometry">
            <mxPoint x="819" y="405" as="sourcePoint" />
            <mxPoint x="962" y="325" as="targetPoint" />
          </mxGeometry>
        </mxCell>
        <mxCell id="CRLLQoTF1z1hfWL0vX9g-65" value="" style="endArrow=none;html=1;rounded=0;entryX=0.5;entryY=1;entryDx=0;entryDy=0;strokeWidth=2;exitX=0.5;exitY=0;exitDx=0;exitDy=0;" parent="1" source="CRLLQoTF1z1hfWL0vX9g-18" target="CRLLQoTF1z1hfWL0vX9g-56" edge="1">
          <mxGeometry width="50" height="50" relative="1" as="geometry">
            <mxPoint x="959" y="465" as="sourcePoint" />
            <mxPoint x="1049" y="345" as="targetPoint" />
          </mxGeometry>
        </mxCell>
        <mxCell id="CRLLQoTF1z1hfWL0vX9g-66" value="" style="endArrow=none;html=1;rounded=0;exitX=0.5;exitY=0;exitDx=0;exitDy=0;strokeWidth=2;" parent="1" source="CRLLQoTF1z1hfWL0vX9g-18" edge="1">
          <mxGeometry width="50" height="50" relative="1" as="geometry">
            <mxPoint x="959" y="475" as="sourcePoint" />
            <mxPoint x="1069" y="440" as="targetPoint" />
          </mxGeometry>
        </mxCell>
        <mxCell id="CRLLQoTF1z1hfWL0vX9g-67" value="age" style="ellipse;whiteSpace=wrap;html=1;strokeWidth=0;" parent="1" vertex="1">
          <mxGeometry x="1043" y="398" width="60" height="38" as="geometry" />
        </mxCell>
        <mxCell id="CRLLQoTF1z1hfWL0vX9g-69" value="&lt;b&gt;Has&lt;/b&gt;" style="rhombus;whiteSpace=wrap;html=1;" parent="1" vertex="1">
          <mxGeometry x="1089" y="535" width="120" height="80" as="geometry" />
        </mxCell>
        <mxCell id="CRLLQoTF1z1hfWL0vX9g-70" value="&lt;font style=&quot;font-size: 15px;&quot;&gt;&lt;b&gt;Dependant&lt;/b&gt;&lt;/font&gt;" style="rounded=0;whiteSpace=wrap;html=1;" parent="1" vertex="1">
          <mxGeometry x="1299" y="545" width="120" height="60" as="geometry" />
        </mxCell>
        <mxCell id="CRLLQoTF1z1hfWL0vX9g-71" value="" style="endArrow=none;html=1;rounded=0;entryX=1;entryY=1;entryDx=0;entryDy=0;strokeWidth=2;exitX=0;exitY=0.5;exitDx=0;exitDy=0;" parent="1" source="CRLLQoTF1z1hfWL0vX9g-69" target="CRLLQoTF1z1hfWL0vX9g-18" edge="1">
          <mxGeometry width="50" height="50" relative="1" as="geometry">
            <mxPoint x="1052" y="605" as="sourcePoint" />
            <mxPoint x="989" y="535" as="targetPoint" />
          </mxGeometry>
        </mxCell>
        <mxCell id="CRLLQoTF1z1hfWL0vX9g-73" value="" style="endArrow=none;html=1;rounded=0;entryX=1;entryY=0.5;entryDx=0;entryDy=0;strokeWidth=2;exitX=0;exitY=0.5;exitDx=0;exitDy=0;" parent="1" source="CRLLQoTF1z1hfWL0vX9g-70" target="CRLLQoTF1z1hfWL0vX9g-69" edge="1">
          <mxGeometry width="50" height="50" relative="1" as="geometry">
            <mxPoint x="1269" y="665" as="sourcePoint" />
            <mxPoint x="1189" y="615" as="targetPoint" />
          </mxGeometry>
        </mxCell>
        <mxCell id="CRLLQoTF1z1hfWL0vX9g-74" value="" style="endArrow=none;html=1;rounded=0;strokeWidth=2;exitX=-0.002;exitY=0.658;exitDx=0;exitDy=0;exitPerimeter=0;entryX=0.895;entryY=0.609;entryDx=0;entryDy=0;entryPerimeter=0;" parent="1" source="CRLLQoTF1z1hfWL0vX9g-70" target="CRLLQoTF1z1hfWL0vX9g-69" edge="1">
          <mxGeometry width="50" height="50" relative="1" as="geometry">
            <mxPoint x="1289" y="585" as="sourcePoint" />
            <mxPoint x="1199" y="585" as="targetPoint" />
          </mxGeometry>
        </mxCell>
        <mxCell id="CRLLQoTF1z1hfWL0vX9g-75" value="&lt;b&gt;&lt;font style=&quot;font-size: 15px;&quot;&gt;1&lt;/font&gt;&lt;/b&gt;" style="text;html=1;align=center;verticalAlign=middle;resizable=0;points=[];autosize=1;strokeColor=none;fillColor=none;" parent="1" vertex="1">
          <mxGeometry x="1073" y="543" width="30" height="30" as="geometry" />
        </mxCell>
        <mxCell id="CRLLQoTF1z1hfWL0vX9g-76" value="&lt;b&gt;&lt;font style=&quot;font-size: 15px;&quot;&gt;N&lt;/font&gt;&lt;/b&gt;" style="text;html=1;align=center;verticalAlign=middle;resizable=0;points=[];autosize=1;strokeColor=none;fillColor=none;" parent="1" vertex="1">
          <mxGeometry x="1194" y="545" width="40" height="30" as="geometry" />
        </mxCell>
        <mxCell id="CRLLQoTF1z1hfWL0vX9g-77" value="&lt;font style=&quot;font-size: 15px;&quot;&gt;&lt;b&gt;relatoinship&lt;/b&gt;&lt;/font&gt;" style="ellipse;whiteSpace=wrap;html=1;" parent="1" vertex="1">
          <mxGeometry x="1359" y="340" width="110" height="50" as="geometry" />
        </mxCell>
        <mxCell id="CRLLQoTF1z1hfWL0vX9g-78" value="" style="endArrow=none;html=1;rounded=0;entryX=0.5;entryY=1;entryDx=0;entryDy=0;strokeWidth=2;exitX=0.5;exitY=0;exitDx=0;exitDy=0;" parent="1" source="CRLLQoTF1z1hfWL0vX9g-70" target="CRLLQoTF1z1hfWL0vX9g-77" edge="1">
          <mxGeometry width="50" height="50" relative="1" as="geometry">
            <mxPoint x="1359" y="545" as="sourcePoint" />
            <mxPoint x="1311" y="425" as="targetPoint" />
          </mxGeometry>
        </mxCell>
        <mxCell id="CRLLQoTF1z1hfWL0vX9g-79" value="" style="rounded=0;whiteSpace=wrap;html=1;fillColor=none;" parent="1" vertex="1">
          <mxGeometry x="1307" y="555" width="105" height="39" as="geometry" />
        </mxCell>
        <mxCell id="CRLLQoTF1z1hfWL0vX9g-80" value="" style="rhombus;whiteSpace=wrap;html=1;fillColor=none;" parent="1" vertex="1">
          <mxGeometry x="1109.63" y="547" width="78.75" height="55" as="geometry" />
        </mxCell>
        <mxCell id="CRLLQoTF1z1hfWL0vX9g-82" value="&lt;font style=&quot;font-size: 15px;&quot;&gt;&lt;b&gt;&lt;font style=&quot;font-size: 15px;&quot;&gt;Works&lt;/font&gt; for&lt;br&gt;&lt;/b&gt;&lt;/font&gt;" style="rhombus;whiteSpace=wrap;html=1;" parent="1" vertex="1">
          <mxGeometry x="594.5" y="615" width="109" height="80" as="geometry" />
        </mxCell>
        <mxCell id="CRLLQoTF1z1hfWL0vX9g-83" value="" style="endArrow=none;html=1;rounded=0;entryX=0.036;entryY=0.998;entryDx=0;entryDy=0;exitX=0.91;exitY=0.404;exitDx=0;exitDy=0;strokeWidth=2;exitPerimeter=0;entryPerimeter=0;" parent="1" source="CRLLQoTF1z1hfWL0vX9g-82" target="CRLLQoTF1z1hfWL0vX9g-18" edge="1">
          <mxGeometry width="50" height="50" relative="1" as="geometry">
            <mxPoint x="729" y="580" as="sourcePoint" />
            <mxPoint x="909" y="580" as="targetPoint" />
          </mxGeometry>
        </mxCell>
        <mxCell id="CRLLQoTF1z1hfWL0vX9g-84" value="" style="endArrow=none;html=1;rounded=0;strokeWidth=2;exitX=0.609;exitY=0.991;exitDx=0;exitDy=0;exitPerimeter=0;entryX=0.086;entryY=0.409;entryDx=0;entryDy=0;entryPerimeter=0;" parent="1" source="CRLLQoTF1z1hfWL0vX9g-12" target="CRLLQoTF1z1hfWL0vX9g-82" edge="1">
          <mxGeometry width="50" height="50" relative="1" as="geometry">
            <mxPoint x="765" y="1035" as="sourcePoint" />
            <mxPoint x="604" y="646" as="targetPoint" />
          </mxGeometry>
        </mxCell>
        <mxCell id="CRLLQoTF1z1hfWL0vX9g-86" value="&lt;b&gt;first_name&lt;/b&gt;" style="ellipse;whiteSpace=wrap;html=1;" parent="1" vertex="1">
          <mxGeometry x="1299" y="260" width="110" height="50" as="geometry" />
        </mxCell>
        <mxCell id="CRLLQoTF1z1hfWL0vX9g-87" value="&lt;b&gt;last_name&lt;/b&gt;" style="ellipse;whiteSpace=wrap;html=1;" parent="1" vertex="1">
          <mxGeometry x="1169" y="260" width="110" height="50" as="geometry" />
        </mxCell>
        <mxCell id="CRLLQoTF1z1hfWL0vX9g-89" value="" style="endArrow=none;html=1;rounded=0;entryX=0.5;entryY=1;entryDx=0;entryDy=0;strokeWidth=2;exitX=0.5;exitY=1;exitDx=0;exitDy=0;" parent="1" source="CRLLQoTF1z1hfWL0vX9g-86" target="CRLLQoTF1z1hfWL0vX9g-87" edge="1">
          <mxGeometry width="50" height="50" relative="1" as="geometry">
            <mxPoint x="1354" y="340" as="sourcePoint" />
            <mxPoint x="1249" y="185" as="targetPoint" />
            <Array as="points">
              <mxPoint x="1289" y="340" />
            </Array>
          </mxGeometry>
        </mxCell>
        <mxCell id="CRLLQoTF1z1hfWL0vX9g-90" value="&lt;b&gt;first_name&lt;/b&gt;" style="ellipse;whiteSpace=wrap;html=1;" parent="1" vertex="1">
          <mxGeometry x="949" y="140" width="110" height="50" as="geometry" />
        </mxCell>
        <mxCell id="CRLLQoTF1z1hfWL0vX9g-91" value="&lt;b&gt;last_name&lt;/b&gt;" style="ellipse;whiteSpace=wrap;html=1;" parent="1" vertex="1">
          <mxGeometry x="829" y="140" width="110" height="50" as="geometry" />
        </mxCell>
        <mxCell id="CRLLQoTF1z1hfWL0vX9g-92" value="" style="endArrow=none;html=1;rounded=0;entryX=0.5;entryY=1;entryDx=0;entryDy=0;strokeWidth=2;exitX=0.5;exitY=1;exitDx=0;exitDy=0;" parent="1" source="CRLLQoTF1z1hfWL0vX9g-90" target="CRLLQoTF1z1hfWL0vX9g-91" edge="1">
          <mxGeometry width="50" height="50" relative="1" as="geometry">
            <mxPoint x="1014" y="180" as="sourcePoint" />
            <mxPoint x="909" y="25" as="targetPoint" />
            <Array as="points">
              <mxPoint x="949" y="210" />
            </Array>
          </mxGeometry>
        </mxCell>
        <mxCell id="CRLLQoTF1z1hfWL0vX9g-93" value="&lt;b&gt;name&lt;/b&gt;" style="ellipse;whiteSpace=wrap;html=1;" parent="1" vertex="1">
          <mxGeometry x="899" y="210" width="100" height="50" as="geometry" />
        </mxCell>
        <mxCell id="CRLLQoTF1z1hfWL0vX9g-94" value="" style="endArrow=none;html=1;rounded=0;entryX=0.5;entryY=0.979;entryDx=0;entryDy=0;exitX=0.5;exitY=0;exitDx=0;exitDy=0;strokeWidth=2;entryPerimeter=0;" parent="1" source="CRLLQoTF1z1hfWL0vX9g-18" target="CRLLQoTF1z1hfWL0vX9g-93" edge="1">
          <mxGeometry width="50" height="50" relative="1" as="geometry">
            <mxPoint x="959" y="475" as="sourcePoint" />
            <mxPoint x="1049" y="290" as="targetPoint" />
          </mxGeometry>
        </mxCell>
        <mxCell id="CRLLQoTF1z1hfWL0vX9g-95" value="&lt;b&gt;&lt;font style=&quot;font-size: 15px;&quot;&gt;N&lt;/font&gt;&lt;/b&gt;" style="text;html=1;align=center;verticalAlign=middle;resizable=0;points=[];autosize=1;strokeColor=none;fillColor=none;" parent="1" vertex="1">
          <mxGeometry x="669" y="615" width="40" height="30" as="geometry" />
        </mxCell>
        <mxCell id="CRLLQoTF1z1hfWL0vX9g-96" value="&lt;font style=&quot;font-size: 15px;&quot;&gt;&lt;b&gt;N&lt;/b&gt;&lt;/font&gt;" style="text;html=1;align=center;verticalAlign=middle;resizable=0;points=[];autosize=1;strokeColor=none;fillColor=none;" parent="1" vertex="1">
          <mxGeometry x="804" y="755" width="40" height="30" as="geometry" />
        </mxCell>
        <mxCell id="CRLLQoTF1z1hfWL0vX9g-97" value="" style="endArrow=none;html=1;rounded=0;entryX=0.177;entryY=0.998;entryDx=0;entryDy=0;exitX=0.994;exitY=0.495;exitDx=0;exitDy=0;strokeWidth=2;exitPerimeter=0;entryPerimeter=0;" parent="1" source="CRLLQoTF1z1hfWL0vX9g-82" target="CRLLQoTF1z1hfWL0vX9g-18" edge="1">
          <mxGeometry width="50" height="50" relative="1" as="geometry">
            <mxPoint x="714" y="665" as="sourcePoint" />
            <mxPoint x="959" y="535" as="targetPoint" />
          </mxGeometry>
        </mxCell>
        <mxCell id="CRLLQoTF1z1hfWL0vX9g-98" value="&lt;font style=&quot;font-size: 15px;&quot;&gt;&lt;b&gt;&lt;font style=&quot;font-size: 15px;&quot;&gt;Works&lt;/font&gt; on&lt;br&gt;&lt;/b&gt;&lt;/font&gt;" style="rhombus;whiteSpace=wrap;html=1;" parent="1" vertex="1">
          <mxGeometry x="729" y="750" width="109" height="80" as="geometry" />
        </mxCell>
        <mxCell id="CRLLQoTF1z1hfWL0vX9g-99" value="" style="endArrow=none;html=1;rounded=0;entryX=0.5;entryY=1;entryDx=0;entryDy=0;exitX=0.929;exitY=0.426;exitDx=0;exitDy=0;strokeWidth=2;exitPerimeter=0;" parent="1" source="CRLLQoTF1z1hfWL0vX9g-98" target="CRLLQoTF1z1hfWL0vX9g-18" edge="1">
          <mxGeometry width="50" height="50" relative="1" as="geometry">
            <mxPoint x="739" y="590" as="sourcePoint" />
            <mxPoint x="908" y="535" as="targetPoint" />
          </mxGeometry>
        </mxCell>
        <mxCell id="CRLLQoTF1z1hfWL0vX9g-100" value="" style="endArrow=none;html=1;rounded=0;entryX=0;entryY=0.5;entryDx=0;entryDy=0;strokeWidth=2;exitX=1;exitY=0.5;exitDx=0;exitDy=0;" parent="1" source="CRLLQoTF1z1hfWL0vX9g-29" target="CRLLQoTF1z1hfWL0vX9g-98" edge="1">
          <mxGeometry width="50" height="50" relative="1" as="geometry">
            <mxPoint x="419" y="535" as="sourcePoint" />
            <mxPoint x="800" y="957.5" as="targetPoint" />
          </mxGeometry>
        </mxCell>
        <mxCell id="CRLLQoTF1z1hfWL0vX9g-101" value="&lt;b&gt;&lt;font style=&quot;font-size: 15px;&quot;&gt;N&lt;/font&gt;&lt;/b&gt;" style="text;html=1;align=center;verticalAlign=middle;resizable=0;points=[];autosize=1;strokeColor=none;fillColor=none;" parent="1" vertex="1">
          <mxGeometry x="709" y="755" width="40" height="30" as="geometry" />
        </mxCell>
        <mxCell id="CRLLQoTF1z1hfWL0vX9g-102" value="&lt;font style=&quot;font-size: 15px;&quot;&gt;&lt;b&gt;1&lt;/b&gt;&lt;/font&gt;" style="text;html=1;align=center;verticalAlign=middle;resizable=0;points=[];autosize=1;strokeColor=none;fillColor=none;" parent="1" vertex="1">
          <mxGeometry x="590" y="615" width="30" height="30" as="geometry" />
        </mxCell>
        <mxCell id="CRLLQoTF1z1hfWL0vX9g-104" value="" style="endArrow=none;html=1;rounded=0;entryX=0.587;entryY=0.989;entryDx=0;entryDy=0;exitX=1;exitY=0.5;exitDx=0;exitDy=0;strokeWidth=2;entryPerimeter=0;" parent="1" source="CRLLQoTF1z1hfWL0vX9g-98" target="CRLLQoTF1z1hfWL0vX9g-18" edge="1">
          <mxGeometry width="50" height="50" relative="1" as="geometry">
            <mxPoint x="844" y="796" as="sourcePoint" />
            <mxPoint x="959" y="535" as="targetPoint" />
          </mxGeometry>
        </mxCell>
        <mxCell id="CRLLQoTF1z1hfWL0vX9g-105" value="" style="endArrow=none;html=1;rounded=0;entryX=0.045;entryY=0.539;entryDx=0;entryDy=0;strokeWidth=2;entryPerimeter=0;exitX=1.004;exitY=0.637;exitDx=0;exitDy=0;exitPerimeter=0;" parent="1" source="CRLLQoTF1z1hfWL0vX9g-29" target="CRLLQoTF1z1hfWL0vX9g-98" edge="1">
          <mxGeometry width="50" height="50" relative="1" as="geometry">
            <mxPoint x="639" y="890" as="sourcePoint" />
            <mxPoint x="739" y="800" as="targetPoint" />
          </mxGeometry>
        </mxCell>
        <mxCell id="CRLLQoTF1z1hfWL0vX9g-106" value="&lt;b&gt;&lt;span style=&quot;font-size: 15px;&quot;&gt;hours&lt;/span&gt;&lt;/b&gt;" style="ellipse;whiteSpace=wrap;html=1;" parent="1" vertex="1">
          <mxGeometry x="764" y="660" width="100" height="50" as="geometry" />
        </mxCell>
        <mxCell id="CRLLQoTF1z1hfWL0vX9g-107" value="" style="endArrow=none;html=1;rounded=0;entryX=0.5;entryY=1;entryDx=0;entryDy=0;exitX=0.629;exitY=0.137;exitDx=0;exitDy=0;strokeWidth=2;exitPerimeter=0;" parent="1" source="CRLLQoTF1z1hfWL0vX9g-98" target="CRLLQoTF1z1hfWL0vX9g-106" edge="1">
          <mxGeometry width="50" height="50" relative="1" as="geometry">
            <mxPoint x="585" y="865" as="sourcePoint" />
            <mxPoint x="617" y="810" as="targetPoint" />
          </mxGeometry>
        </mxCell>
        <mxCell id="CRLLQoTF1z1hfWL0vX9g-108" value="" style="endArrow=none;html=1;rounded=0;entryX=0;entryY=0.5;entryDx=0;entryDy=0;strokeWidth=2;exitX=0.5;exitY=1;exitDx=0;exitDy=0;" parent="1" source="CRLLQoTF1z1hfWL0vX9g-12" target="CRLLQoTF1z1hfWL0vX9g-82" edge="1">
          <mxGeometry width="50" height="50" relative="1" as="geometry">
            <mxPoint x="399" y="530" as="sourcePoint" />
            <mxPoint x="605" y="665" as="targetPoint" />
          </mxGeometry>
        </mxCell>
      </root>
    </mxGraphModel>
  </diagram>
</mxfile>
